<svg width="454" height="120" viewBox="0 0 454 120" fill="none" xmlns="http://www.w3.org/2000/svg">
<mask id="path-1-outside-1_1_8" maskUnits="userSpaceOnUse" x="88" y="43" width="280" height="34" fill="black">
<rect fill="white" x="88" y="43" width="280" height="34"/>
<path d="M113.484 45.5625V74H107.625V50.1523H96.1992V74H90.3398V45.5625H113.484ZM132.469 52.8672V57.2812H122.078V52.8672H132.469ZM136.59 52.8672V74H130.965V52.8672H136.59ZM120.672 52.8672H126.199L125.633 63.5312C125.555 65.0547 125.392 66.3958 125.145 67.5547C124.897 68.7135 124.565 69.7031 124.148 70.5234C123.745 71.3438 123.257 72.0143 122.684 72.5352C122.124 73.043 121.466 73.4141 120.711 73.6484C119.969 73.8828 119.148 74 118.25 74H116.531L116.473 69.5664L117.195 69.4883C117.612 69.4492 117.977 69.332 118.289 69.1367C118.615 68.9284 118.888 68.6354 119.109 68.2578C119.344 67.8672 119.539 67.3789 119.695 66.793C119.852 66.194 119.975 65.4909 120.066 64.6836C120.171 63.8763 120.242 62.9453 120.281 61.8906L120.672 52.8672ZM152.352 69.2344V59.8203C152.352 59.1432 152.241 58.5638 152.02 58.082C151.798 57.5872 151.453 57.2031 150.984 56.9297C150.529 56.6562 149.936 56.5195 149.207 56.5195C148.582 56.5195 148.042 56.6302 147.586 56.8516C147.13 57.0599 146.779 57.3659 146.531 57.7695C146.284 58.1602 146.16 58.6224 146.16 59.1562H140.535C140.535 58.2578 140.743 57.4049 141.16 56.5977C141.577 55.7904 142.182 55.0807 142.977 54.4688C143.771 53.8438 144.715 53.3555 145.809 53.0039C146.915 52.6523 148.152 52.4766 149.52 52.4766C151.16 52.4766 152.618 52.75 153.895 53.2969C155.171 53.8438 156.173 54.6641 156.902 55.7578C157.645 56.8516 158.016 58.2188 158.016 59.8594V68.9023C158.016 70.0612 158.087 71.0117 158.23 71.7539C158.374 72.4831 158.582 73.1211 158.855 73.668V74H153.172C152.898 73.4271 152.69 72.7109 152.547 71.8516C152.417 70.9792 152.352 70.1068 152.352 69.2344ZM153.094 61.1289L153.133 64.3125H149.988C149.246 64.3125 148.602 64.3971 148.055 64.5664C147.508 64.7357 147.059 64.9766 146.707 65.2891C146.355 65.5885 146.095 65.9401 145.926 66.3438C145.77 66.7474 145.691 67.1901 145.691 67.6719C145.691 68.1536 145.802 68.5898 146.023 68.9805C146.245 69.3581 146.564 69.6576 146.98 69.8789C147.397 70.0872 147.885 70.1914 148.445 70.1914C149.292 70.1914 150.027 70.0221 150.652 69.6836C151.277 69.3451 151.759 68.9284 152.098 68.4336C152.449 67.9388 152.632 67.4701 152.645 67.0273L154.129 69.4102C153.921 69.944 153.634 70.4974 153.27 71.0703C152.918 71.6432 152.469 72.1836 151.922 72.6914C151.375 73.1862 150.717 73.5964 149.949 73.9219C149.181 74.2344 148.27 74.3906 147.215 74.3906C145.874 74.3906 144.656 74.1237 143.562 73.5898C142.482 73.043 141.622 72.2943 140.984 71.3438C140.359 70.3802 140.047 69.2865 140.047 68.0625C140.047 66.9557 140.255 65.9727 140.672 65.1133C141.089 64.2539 141.701 63.5312 142.508 62.9453C143.328 62.3464 144.35 61.8971 145.574 61.5977C146.798 61.2852 148.217 61.1289 149.832 61.1289H153.094ZM176.824 61.4023V65.7773H166.082V61.4023H176.824ZM167.957 52.8672V74H162.332V52.8672H167.957ZM180.633 52.8672V74H174.988V52.8672H180.633ZM191.004 52.8672V74H185.379V52.8672H191.004ZM204.734 52.8672L195.633 66.0898H190.008L189.324 60.8945H193.055L197.605 52.8672H204.734ZM197.859 74L192.664 65.0742L197.566 62.3594L205.398 74H197.859ZM218.27 52.8672V74H212.625V52.8672H218.27ZM225.066 52.8672V57.2227H205.926V52.8672H225.066ZM226.375 63.6484V63.2383C226.375 61.6888 226.596 60.263 227.039 58.9609C227.482 57.6458 228.126 56.5065 228.973 55.543C229.819 54.5794 230.861 53.8307 232.098 53.2969C233.335 52.75 234.754 52.4766 236.355 52.4766C237.957 52.4766 239.383 52.75 240.633 53.2969C241.883 53.8307 242.931 54.5794 243.777 55.543C244.637 56.5065 245.288 57.6458 245.73 58.9609C246.173 60.263 246.395 61.6888 246.395 63.2383V63.6484C246.395 65.1849 246.173 66.6107 245.73 67.9258C245.288 69.2279 244.637 70.3672 243.777 71.3438C242.931 72.3073 241.889 73.056 240.652 73.5898C239.415 74.1237 237.996 74.3906 236.395 74.3906C234.793 74.3906 233.367 74.1237 232.117 73.5898C230.88 73.056 229.832 72.3073 228.973 71.3438C228.126 70.3672 227.482 69.2279 227.039 67.9258C226.596 66.6107 226.375 65.1849 226.375 63.6484ZM232 63.2383V63.6484C232 64.5339 232.078 65.3607 232.234 66.1289C232.391 66.8971 232.638 67.5742 232.977 68.1602C233.328 68.7331 233.784 69.1823 234.344 69.5078C234.904 69.8333 235.587 69.9961 236.395 69.9961C237.176 69.9961 237.846 69.8333 238.406 69.5078C238.966 69.1823 239.415 68.7331 239.754 68.1602C240.092 67.5742 240.34 66.8971 240.496 66.1289C240.665 65.3607 240.75 64.5339 240.75 63.6484V63.2383C240.75 62.3789 240.665 61.5716 240.496 60.8164C240.34 60.0482 240.086 59.3711 239.734 58.7852C239.396 58.1862 238.947 57.7174 238.387 57.3789C237.827 57.0404 237.15 56.8711 236.355 56.8711C235.561 56.8711 234.884 57.0404 234.324 57.3789C233.777 57.7174 233.328 58.1862 232.977 58.7852C232.638 59.3711 232.391 60.0482 232.234 60.8164C232.078 61.5716 232 62.3789 232 63.2383ZM264.324 61.4023V65.7773H253.582V61.4023H264.324ZM255.457 52.8672V74H249.832V52.8672H255.457ZM268.133 52.8672V74H262.488V52.8672H268.133ZM293.562 59.5859V64H282.527V59.5859H293.562ZM314.656 45.5625V74H308.797V45.5625H314.656ZM320.086 58.1602V62.5547H312.332V58.1602H320.086ZM342.078 59.1172V60.4648C342.078 62.6263 341.785 64.5664 341.199 66.2852C340.613 68.0039 339.786 69.4688 338.719 70.6797C337.651 71.8776 336.375 72.7956 334.891 73.4336C333.419 74.0716 331.785 74.3906 329.988 74.3906C328.204 74.3906 326.57 74.0716 325.086 73.4336C323.615 72.7956 322.332 71.8776 321.238 70.6797C320.158 69.4688 319.324 68.0039 318.738 66.2852C318.152 64.5664 317.859 62.6263 317.859 60.4648V59.1172C317.859 56.9427 318.152 55.0026 318.738 53.2969C319.324 51.5781 320.151 50.1133 321.219 48.9023C322.299 47.6914 323.576 46.7669 325.047 46.1289C326.531 45.4909 328.165 45.1719 329.949 45.1719C331.746 45.1719 333.38 45.4909 334.852 46.1289C336.336 46.7669 337.612 47.6914 338.68 48.9023C339.76 50.1133 340.594 51.5781 341.18 53.2969C341.779 55.0026 342.078 56.9427 342.078 59.1172ZM336.16 60.4648V59.0781C336.16 57.5677 336.023 56.2396 335.75 55.0938C335.477 53.9479 335.073 52.9844 334.539 52.2031C334.005 51.4219 333.354 50.8359 332.586 50.4453C331.818 50.0417 330.939 49.8398 329.949 49.8398C328.96 49.8398 328.081 50.0417 327.312 50.4453C326.557 50.8359 325.913 51.4219 325.379 52.2031C324.858 52.9844 324.461 53.9479 324.188 55.0938C323.914 56.2396 323.777 57.5677 323.777 59.0781V60.4648C323.777 61.9622 323.914 63.2904 324.188 64.4492C324.461 65.5951 324.865 66.5651 325.398 67.3594C325.932 68.1406 326.583 68.7331 327.352 69.1367C328.12 69.5404 328.999 69.7422 329.988 69.7422C330.978 69.7422 331.85 69.5404 332.605 69.1367C333.374 68.7331 334.018 68.1406 334.539 67.3594C335.073 66.5651 335.477 65.5951 335.75 64.4492C336.023 63.2904 336.16 61.9622 336.16 60.4648ZM365.125 45.5625V50.1523H352.312V74H346.473V45.5625H365.125Z"/>
</mask>
<path d="M113.484 45.5625V74H107.625V50.1523H96.1992V74H90.3398V45.5625H113.484ZM132.469 52.8672V57.2812H122.078V52.8672H132.469ZM136.59 52.8672V74H130.965V52.8672H136.59ZM120.672 52.8672H126.199L125.633 63.5312C125.555 65.0547 125.392 66.3958 125.145 67.5547C124.897 68.7135 124.565 69.7031 124.148 70.5234C123.745 71.3438 123.257 72.0143 122.684 72.5352C122.124 73.043 121.466 73.4141 120.711 73.6484C119.969 73.8828 119.148 74 118.25 74H116.531L116.473 69.5664L117.195 69.4883C117.612 69.4492 117.977 69.332 118.289 69.1367C118.615 68.9284 118.888 68.6354 119.109 68.2578C119.344 67.8672 119.539 67.3789 119.695 66.793C119.852 66.194 119.975 65.4909 120.066 64.6836C120.171 63.8763 120.242 62.9453 120.281 61.8906L120.672 52.8672ZM152.352 69.2344V59.8203C152.352 59.1432 152.241 58.5638 152.02 58.082C151.798 57.5872 151.453 57.2031 150.984 56.9297C150.529 56.6562 149.936 56.5195 149.207 56.5195C148.582 56.5195 148.042 56.6302 147.586 56.8516C147.13 57.0599 146.779 57.3659 146.531 57.7695C146.284 58.1602 146.16 58.6224 146.16 59.1562H140.535C140.535 58.2578 140.743 57.4049 141.16 56.5977C141.577 55.7904 142.182 55.0807 142.977 54.4688C143.771 53.8438 144.715 53.3555 145.809 53.0039C146.915 52.6523 148.152 52.4766 149.52 52.4766C151.16 52.4766 152.618 52.75 153.895 53.2969C155.171 53.8438 156.173 54.6641 156.902 55.7578C157.645 56.8516 158.016 58.2188 158.016 59.8594V68.9023C158.016 70.0612 158.087 71.0117 158.23 71.7539C158.374 72.4831 158.582 73.1211 158.855 73.668V74H153.172C152.898 73.4271 152.69 72.7109 152.547 71.8516C152.417 70.9792 152.352 70.1068 152.352 69.2344ZM153.094 61.1289L153.133 64.3125H149.988C149.246 64.3125 148.602 64.3971 148.055 64.5664C147.508 64.7357 147.059 64.9766 146.707 65.2891C146.355 65.5885 146.095 65.9401 145.926 66.3438C145.77 66.7474 145.691 67.1901 145.691 67.6719C145.691 68.1536 145.802 68.5898 146.023 68.9805C146.245 69.3581 146.564 69.6576 146.98 69.8789C147.397 70.0872 147.885 70.1914 148.445 70.1914C149.292 70.1914 150.027 70.0221 150.652 69.6836C151.277 69.3451 151.759 68.9284 152.098 68.4336C152.449 67.9388 152.632 67.4701 152.645 67.0273L154.129 69.4102C153.921 69.944 153.634 70.4974 153.27 71.0703C152.918 71.6432 152.469 72.1836 151.922 72.6914C151.375 73.1862 150.717 73.5964 149.949 73.9219C149.181 74.2344 148.27 74.3906 147.215 74.3906C145.874 74.3906 144.656 74.1237 143.562 73.5898C142.482 73.043 141.622 72.2943 140.984 71.3438C140.359 70.3802 140.047 69.2865 140.047 68.0625C140.047 66.9557 140.255 65.9727 140.672 65.1133C141.089 64.2539 141.701 63.5312 142.508 62.9453C143.328 62.3464 144.35 61.8971 145.574 61.5977C146.798 61.2852 148.217 61.1289 149.832 61.1289H153.094ZM176.824 61.4023V65.7773H166.082V61.4023H176.824ZM167.957 52.8672V74H162.332V52.8672H167.957ZM180.633 52.8672V74H174.988V52.8672H180.633ZM191.004 52.8672V74H185.379V52.8672H191.004ZM204.734 52.8672L195.633 66.0898H190.008L189.324 60.8945H193.055L197.605 52.8672H204.734ZM197.859 74L192.664 65.0742L197.566 62.3594L205.398 74H197.859ZM218.27 52.8672V74H212.625V52.8672H218.27ZM225.066 52.8672V57.2227H205.926V52.8672H225.066ZM226.375 63.6484V63.2383C226.375 61.6888 226.596 60.263 227.039 58.9609C227.482 57.6458 228.126 56.5065 228.973 55.543C229.819 54.5794 230.861 53.8307 232.098 53.2969C233.335 52.75 234.754 52.4766 236.355 52.4766C237.957 52.4766 239.383 52.75 240.633 53.2969C241.883 53.8307 242.931 54.5794 243.777 55.543C244.637 56.5065 245.288 57.6458 245.73 58.9609C246.173 60.263 246.395 61.6888 246.395 63.2383V63.6484C246.395 65.1849 246.173 66.6107 245.73 67.9258C245.288 69.2279 244.637 70.3672 243.777 71.3438C242.931 72.3073 241.889 73.056 240.652 73.5898C239.415 74.1237 237.996 74.3906 236.395 74.3906C234.793 74.3906 233.367 74.1237 232.117 73.5898C230.88 73.056 229.832 72.3073 228.973 71.3438C228.126 70.3672 227.482 69.2279 227.039 67.9258C226.596 66.6107 226.375 65.1849 226.375 63.6484ZM232 63.2383V63.6484C232 64.5339 232.078 65.3607 232.234 66.1289C232.391 66.8971 232.638 67.5742 232.977 68.1602C233.328 68.7331 233.784 69.1823 234.344 69.5078C234.904 69.8333 235.587 69.9961 236.395 69.9961C237.176 69.9961 237.846 69.8333 238.406 69.5078C238.966 69.1823 239.415 68.7331 239.754 68.1602C240.092 67.5742 240.34 66.8971 240.496 66.1289C240.665 65.3607 240.75 64.5339 240.75 63.6484V63.2383C240.75 62.3789 240.665 61.5716 240.496 60.8164C240.34 60.0482 240.086 59.3711 239.734 58.7852C239.396 58.1862 238.947 57.7174 238.387 57.3789C237.827 57.0404 237.15 56.8711 236.355 56.8711C235.561 56.8711 234.884 57.0404 234.324 57.3789C233.777 57.7174 233.328 58.1862 232.977 58.7852C232.638 59.3711 232.391 60.0482 232.234 60.8164C232.078 61.5716 232 62.3789 232 63.2383ZM264.324 61.4023V65.7773H253.582V61.4023H264.324ZM255.457 52.8672V74H249.832V52.8672H255.457ZM268.133 52.8672V74H262.488V52.8672H268.133ZM293.562 59.5859V64H282.527V59.5859H293.562ZM314.656 45.5625V74H308.797V45.5625H314.656ZM320.086 58.1602V62.5547H312.332V58.1602H320.086ZM342.078 59.1172V60.4648C342.078 62.6263 341.785 64.5664 341.199 66.2852C340.613 68.0039 339.786 69.4688 338.719 70.6797C337.651 71.8776 336.375 72.7956 334.891 73.4336C333.419 74.0716 331.785 74.3906 329.988 74.3906C328.204 74.3906 326.57 74.0716 325.086 73.4336C323.615 72.7956 322.332 71.8776 321.238 70.6797C320.158 69.4688 319.324 68.0039 318.738 66.2852C318.152 64.5664 317.859 62.6263 317.859 60.4648V59.1172C317.859 56.9427 318.152 55.0026 318.738 53.2969C319.324 51.5781 320.151 50.1133 321.219 48.9023C322.299 47.6914 323.576 46.7669 325.047 46.1289C326.531 45.4909 328.165 45.1719 329.949 45.1719C331.746 45.1719 333.38 45.4909 334.852 46.1289C336.336 46.7669 337.612 47.6914 338.68 48.9023C339.76 50.1133 340.594 51.5781 341.18 53.2969C341.779 55.0026 342.078 56.9427 342.078 59.1172ZM336.16 60.4648V59.0781C336.16 57.5677 336.023 56.2396 335.75 55.0938C335.477 53.9479 335.073 52.9844 334.539 52.2031C334.005 51.4219 333.354 50.8359 332.586 50.4453C331.818 50.0417 330.939 49.8398 329.949 49.8398C328.96 49.8398 328.081 50.0417 327.312 50.4453C326.557 50.8359 325.913 51.4219 325.379 52.2031C324.858 52.9844 324.461 53.9479 324.188 55.0938C323.914 56.2396 323.777 57.5677 323.777 59.0781V60.4648C323.777 61.9622 323.914 63.2904 324.188 64.4492C324.461 65.5951 324.865 66.5651 325.398 67.3594C325.932 68.1406 326.583 68.7331 327.352 69.1367C328.12 69.5404 328.999 69.7422 329.988 69.7422C330.978 69.7422 331.85 69.5404 332.605 69.1367C333.374 68.7331 334.018 68.1406 334.539 67.3594C335.073 66.5651 335.477 65.5951 335.75 64.4492C336.023 63.2904 336.16 61.9622 336.16 60.4648ZM365.125 45.5625V50.1523H352.312V74H346.473V45.5625H365.125Z" fill="white"/>
<path d="M113.484 45.5625H115.484V43.5625H113.484V45.5625ZM113.484 74V76H115.484V74H113.484ZM107.625 74H105.625V76H107.625V74ZM107.625 50.1523H109.625V48.1523H107.625V50.1523ZM96.1992 50.1523V48.1523H94.1992V50.1523H96.1992ZM96.1992 74V76H98.1992V74H96.1992ZM90.3398 74H88.3398V76H90.3398V74ZM90.3398 45.5625V43.5625H88.3398V45.5625H90.3398ZM111.484 45.5625V74H115.484V45.5625H111.484ZM113.484 72H107.625V76H113.484V72ZM109.625 74V50.1523H105.625V74H109.625ZM107.625 48.1523H96.1992V52.1523H107.625V48.1523ZM94.1992 50.1523V74H98.1992V50.1523H94.1992ZM96.1992 72H90.3398V76H96.1992V72ZM92.3398 74V45.5625H88.3398V74H92.3398ZM90.3398 47.5625H113.484V43.5625H90.3398V47.5625ZM132.469 52.8672H134.469V50.8672H132.469V52.8672ZM132.469 57.2812V59.2812H134.469V57.2812H132.469ZM122.078 57.2812H120.078V59.2812H122.078V57.2812ZM122.078 52.8672V50.8672H120.078V52.8672H122.078ZM136.59 52.8672H138.59V50.8672H136.59V52.8672ZM136.59 74V76H138.59V74H136.59ZM130.965 74H128.965V76H130.965V74ZM130.965 52.8672V50.8672H128.965V52.8672H130.965ZM120.672 52.8672V50.8672H118.757L118.674 52.7807L120.672 52.8672ZM126.199 52.8672L128.196 52.9733L128.308 50.8672H126.199V52.8672ZM125.633 63.5312L123.636 63.4252L123.635 63.4288L125.633 63.5312ZM124.148 70.5234L122.365 69.6177L122.36 69.629L122.354 69.6404L124.148 70.5234ZM122.684 72.5352L124.027 74.0166L124.029 74.015L122.684 72.5352ZM120.711 73.6484L120.118 71.7383L120.109 71.7413L120.711 73.6484ZM116.531 74L114.531 74.0264L114.558 76H116.531V74ZM116.473 69.5664L116.258 67.578L114.449 67.7735L114.473 69.5928L116.473 69.5664ZM117.195 69.4883L117.009 67.497L116.994 67.4983L116.98 67.4999L117.195 69.4883ZM118.289 69.1367L119.349 70.8327L119.358 70.827L119.367 70.8213L118.289 69.1367ZM119.109 68.2578L117.394 67.2288L117.389 67.2376L117.384 67.2464L119.109 68.2578ZM119.695 66.793L121.628 67.3083L121.631 67.2978L119.695 66.793ZM120.066 64.6836L118.083 64.4277L118.081 64.4434L118.079 64.4592L120.066 64.6836ZM120.281 61.8906L118.283 61.8041L118.283 61.8166L120.281 61.8906ZM130.469 52.8672V57.2812H134.469V52.8672H130.469ZM132.469 55.2812H122.078V59.2812H132.469V55.2812ZM124.078 57.2812V52.8672H120.078V57.2812H124.078ZM122.078 54.8672H132.469V50.8672H122.078V54.8672ZM134.59 52.8672V74H138.59V52.8672H134.59ZM136.59 72H130.965V76H136.59V72ZM132.965 74V52.8672H128.965V74H132.965ZM130.965 54.8672H136.59V50.8672H130.965V54.8672ZM120.672 54.8672H126.199V50.8672H120.672V54.8672ZM124.202 52.7611L123.636 63.4252L127.63 63.6373L128.196 52.9733L124.202 52.7611ZM123.635 63.4288C123.561 64.8747 123.409 66.1066 123.189 67.1371L127.1 67.9722C127.375 66.6851 127.548 65.2347 127.63 63.6337L123.635 63.4288ZM123.189 67.1371C122.968 68.1724 122.685 68.9889 122.365 69.6177L125.932 71.4292C126.446 70.4174 126.827 69.2547 127.1 67.9722L123.189 67.1371ZM122.354 69.6404C122.042 70.2753 121.695 70.731 121.338 71.0553L124.029 74.015C124.818 73.2976 125.448 72.4122 125.943 71.4065L122.354 69.6404ZM121.34 71.0537C121.006 71.3565 120.608 71.5863 120.118 71.7383L121.304 75.5586C122.324 75.2418 123.241 74.7294 124.027 74.0166L121.34 71.0537ZM120.109 71.7413C119.589 71.9055 118.975 72 118.25 72V76C119.322 76 120.349 75.8602 121.313 75.5556L120.109 71.7413ZM118.25 72H116.531V76H118.25V72ZM118.531 73.9736L118.472 69.54L114.473 69.5928L114.531 74.0264L118.531 73.9736ZM116.688 71.5548L117.41 71.4767L116.98 67.4999L116.258 67.578L116.688 71.5548ZM117.382 71.4795C118.066 71.4154 118.739 71.2143 119.349 70.8327L117.229 67.4407C117.215 67.4498 117.158 67.4831 117.009 67.497L117.382 71.4795ZM119.367 70.8213C119.992 70.4214 120.475 69.8828 120.835 69.2693L117.384 67.2464C117.301 67.3881 117.237 67.4354 117.211 67.4522L119.367 70.8213ZM120.824 69.2868C121.181 68.693 121.438 68.019 121.628 67.3083L117.763 66.2776C117.64 66.7388 117.507 67.0413 117.394 67.2288L120.824 69.2868ZM121.631 67.2978C121.817 66.5834 121.955 65.7825 122.054 64.908L118.079 64.4592C117.995 65.1993 117.886 65.8046 117.76 66.2881L121.631 67.2978ZM122.05 64.9395C122.164 64.0573 122.239 63.0634 122.28 61.9646L118.283 61.8166C118.245 62.8272 118.177 63.6953 118.083 64.4277L122.05 64.9395ZM122.279 61.9771L122.67 52.9537L118.674 52.7807L118.283 61.8041L122.279 61.9771ZM152.02 58.082L150.194 58.8988L150.198 58.9079L150.202 58.917L152.02 58.082ZM150.984 56.9297L149.955 58.6447L149.966 58.651L149.977 58.6572L150.984 56.9297ZM147.586 56.8516L148.417 58.6705L148.439 58.6608L148.46 58.6506L147.586 56.8516ZM146.531 57.7695L148.221 58.8396L148.229 58.8272L148.236 58.8147L146.531 57.7695ZM146.16 59.1562V61.1562H148.16V59.1562H146.16ZM140.535 59.1562H138.535V61.1562H140.535V59.1562ZM141.16 56.5977L139.383 55.6804L141.16 56.5977ZM142.977 54.4688L144.197 56.053L144.205 56.0468L144.213 56.0405L142.977 54.4688ZM145.809 53.0039L145.203 51.0977L145.197 51.0998L145.809 53.0039ZM156.902 55.7578L155.238 56.8672L155.243 56.874L155.247 56.8808L156.902 55.7578ZM158.23 71.7539L156.267 72.1329L156.268 72.1394L158.23 71.7539ZM158.855 73.668H160.855V73.1958L160.644 72.7735L158.855 73.668ZM158.855 74V76H160.855V74H158.855ZM153.172 74L151.367 74.8615L151.91 76H153.172V74ZM152.547 71.8516L150.569 72.1468L150.571 72.1636L150.574 72.1804L152.547 71.8516ZM153.094 61.1289L155.094 61.1044L155.069 59.1289H153.094V61.1289ZM153.133 64.3125V66.3125H155.158L155.133 64.288L153.133 64.3125ZM146.707 65.2891L148.004 66.8115L148.02 66.7979L148.036 66.7839L146.707 65.2891ZM145.926 66.3438L144.081 65.5703L144.071 65.5959L144.061 65.6218L145.926 66.3438ZM146.023 68.9805L144.283 69.9665L144.291 69.9793L144.298 69.9919L146.023 68.9805ZM146.98 69.8789L146.042 71.6451L146.064 71.6567L146.086 71.6678L146.98 69.8789ZM152.098 68.4336L150.467 67.2752L150.457 67.2896L150.447 67.3042L152.098 68.4336ZM152.645 67.0273L154.342 65.9698L150.84 60.3483L150.645 66.9685L152.645 67.0273ZM154.129 69.4102L155.992 70.1372L156.356 69.2035L155.826 68.3527L154.129 69.4102ZM153.27 71.0703L151.582 69.9966L151.573 70.0104L151.565 70.0243L153.27 71.0703ZM151.922 72.6914L153.264 74.1745L153.273 74.1658L153.283 74.157L151.922 72.6914ZM149.949 73.9219L150.703 75.7745L150.716 75.769L150.73 75.7634L149.949 73.9219ZM143.562 73.5898L142.659 75.3744L142.672 75.3809L142.685 75.3872L143.562 73.5898ZM140.984 71.3438L139.306 72.4321L139.315 72.4453L139.324 72.4584L140.984 71.3438ZM142.508 62.9453L143.683 64.5639L143.687 64.5606L142.508 62.9453ZM145.574 61.5977L146.05 63.5403L146.059 63.538L146.069 63.5355L145.574 61.5977ZM154.352 69.2344V59.8203H150.352V69.2344H154.352ZM154.352 59.8203C154.352 58.932 154.207 58.0527 153.837 57.247L150.202 58.917C150.275 59.0749 150.352 59.3544 150.352 59.8203H154.352ZM153.845 57.2653C153.453 56.3884 152.822 55.686 151.992 55.2021L149.977 58.6572C150.085 58.7203 150.143 58.7861 150.194 58.8988L153.845 57.2653ZM152.013 55.2147C151.152 54.6978 150.169 54.5195 149.207 54.5195V58.5195C149.703 58.5195 149.905 58.6147 149.955 58.6447L152.013 55.2147ZM149.207 54.5195C148.349 54.5195 147.496 54.6717 146.712 55.0525L148.46 58.6506C148.587 58.5887 148.816 58.5195 149.207 58.5195V54.5195ZM146.754 55.0326C145.959 55.3961 145.294 55.9614 144.826 56.7244L148.236 58.8147C148.264 58.7704 148.301 58.7237 148.417 58.6705L146.754 55.0326ZM144.842 56.6994C144.362 57.4572 144.16 58.3033 144.16 59.1562H148.16C148.16 58.9415 148.206 58.8631 148.221 58.8396L144.842 56.6994ZM146.16 57.1562H140.535V61.1562H146.16V57.1562ZM142.535 59.1562C142.535 58.5807 142.665 58.0419 142.937 57.5149L139.383 55.6804C138.822 56.768 138.535 57.935 138.535 59.1562H142.535ZM142.937 57.5149C143.206 56.994 143.611 56.5049 144.197 56.053L141.756 52.8845C140.754 53.6566 139.947 54.5867 139.383 55.6804L142.937 57.5149ZM144.213 56.0405C144.797 55.5812 145.523 55.1966 146.421 54.908L145.197 51.0998C143.907 51.5143 142.745 52.1063 141.74 52.897L144.213 56.0405ZM146.414 54.9101C147.294 54.6306 148.322 54.4766 149.52 54.4766V50.4766C147.982 50.4766 146.537 50.6741 145.203 51.0978L146.414 54.9101ZM149.52 54.4766C150.938 54.4766 152.121 54.7126 153.107 55.1352L154.682 51.4586C153.116 50.7874 151.383 50.4766 149.52 50.4766V54.4766ZM153.107 55.1352C154.047 55.5382 154.737 56.1148 155.238 56.8672L158.566 54.6484C157.61 53.2133 156.294 52.1493 154.682 51.4586L153.107 55.1352ZM155.247 56.8808C155.716 57.571 156.016 58.522 156.016 59.8594H160.016C160.016 57.9155 159.573 56.1321 158.557 54.6348L155.247 56.8808ZM156.016 59.8594V68.9023H160.016V59.8594H156.016ZM156.016 68.9023C156.016 70.1288 156.09 71.2185 156.267 72.1329L160.194 71.3749C160.084 70.805 160.016 69.9936 160.016 68.9023H156.016ZM156.268 72.1394C156.439 73.0087 156.698 73.8243 157.067 74.5624L160.644 72.7735C160.467 72.4179 160.309 71.9574 160.193 71.3684L156.268 72.1394ZM156.855 73.668V74H160.855V73.668H156.855ZM158.855 72H153.172V76H158.855V72ZM154.977 73.1385C154.808 72.784 154.643 72.261 154.52 71.5228L150.574 72.1804C150.738 73.1609 150.989 74.0702 151.367 74.8615L154.977 73.1385ZM154.525 71.5563C154.409 70.7806 154.352 70.0069 154.352 69.2344H150.352C150.352 70.2067 150.424 71.1778 150.569 72.1468L154.525 71.5563ZM151.094 61.1534L151.133 64.337L155.133 64.288L155.094 61.1044L151.094 61.1534ZM153.133 62.3125H149.988V66.3125H153.133V62.3125ZM149.988 62.3125C149.102 62.3125 148.249 62.4127 147.463 62.6558L148.646 66.477C148.954 66.3815 149.391 66.3125 149.988 66.3125V62.3125ZM147.463 62.6558C146.702 62.8916 145.984 63.2556 145.378 63.7942L148.036 66.7839C148.133 66.6975 148.314 66.5798 148.646 66.477L147.463 62.6558ZM145.41 63.7666C144.833 64.2578 144.379 64.8616 144.081 65.5703L147.77 67.1172C147.812 67.0186 147.878 66.9192 148.004 66.8115L145.41 63.7666ZM144.061 65.6218C143.806 66.2803 143.691 66.971 143.691 67.6719H147.691C147.691 67.4092 147.733 67.2145 147.791 67.0657L144.061 65.6218ZM143.691 67.6719C143.691 68.4732 143.879 69.2533 144.283 69.9665L147.763 67.9944C147.725 67.9264 147.691 67.8341 147.691 67.6719H143.691ZM144.298 69.9919C144.721 70.7141 145.325 71.264 146.042 71.6451L147.919 68.1127C147.803 68.0511 147.768 68.0021 147.749 67.969L144.298 69.9919ZM146.086 71.6678C146.831 72.0402 147.637 72.1914 148.445 72.1914V68.1914C148.134 68.1914 147.963 68.1342 147.875 68.0901L146.086 71.6678ZM148.445 72.1914C149.561 72.1914 150.636 71.9668 151.605 71.4422L149.7 67.925C149.418 68.0775 149.022 68.1914 148.445 68.1914V72.1914ZM151.605 71.4422C152.458 70.9803 153.2 70.3645 153.748 69.563L150.447 67.3042C150.318 67.4923 150.097 67.7098 149.7 67.925L151.605 71.4422ZM153.728 69.592C154.226 68.891 154.615 68.0452 154.644 67.0861L150.645 66.9685C150.648 66.8949 150.672 66.9866 150.467 67.2752L153.728 69.592ZM150.947 68.0848L152.431 70.4677L155.826 68.3527L154.342 65.9698L150.947 68.0848ZM152.266 68.6831C152.112 69.0762 151.889 69.5137 151.582 69.9966L154.957 72.1441C155.379 71.4811 155.729 70.8118 155.992 70.1372L152.266 68.6831ZM151.565 70.0243C151.318 70.4264 150.989 70.8282 150.561 71.2258L153.283 74.157C153.948 73.539 154.518 72.86 154.974 72.1163L151.565 70.0243ZM150.58 71.2083C150.219 71.5348 149.758 71.8308 149.169 72.0804L150.73 75.7634C151.677 75.3619 152.531 74.8376 153.264 74.1745L150.58 71.2083ZM149.196 72.0693C148.722 72.2619 148.079 72.3906 147.215 72.3906V76.3906C148.461 76.3906 149.64 76.2068 150.703 75.7745L149.196 72.0693ZM147.215 72.3906C146.146 72.3906 145.233 72.1799 144.44 71.7925L142.685 75.3872C144.079 76.0675 145.601 76.3906 147.215 76.3906V72.3906ZM144.466 71.8053C143.672 71.4039 143.081 70.8785 142.645 70.2291L139.324 72.4584C140.164 73.71 141.291 74.6821 142.659 75.3744L144.466 71.8053ZM142.662 70.2554C142.262 69.6375 142.047 68.9268 142.047 68.0625H138.047C138.047 69.6462 138.457 71.1229 139.306 72.4321L142.662 70.2554ZM142.047 68.0625C142.047 67.2101 142.206 66.5332 142.472 65.9858L138.872 64.2407C138.304 65.4121 138.047 66.7014 138.047 68.0625H142.047ZM142.472 65.9858C142.738 65.4361 143.13 64.9653 143.683 64.5639L141.333 61.3267C140.271 62.0972 139.439 63.0717 138.872 64.2407L142.472 65.9858ZM143.687 64.5606C144.252 64.1479 145.02 63.7922 146.05 63.5403L145.099 59.655C143.68 60.0021 142.404 60.5448 141.328 61.3301L143.687 64.5606ZM146.069 63.5355C147.094 63.2738 148.341 63.1289 149.832 63.1289V59.1289C148.094 59.1289 146.503 59.2965 145.079 59.6598L146.069 63.5355ZM149.832 63.1289H153.094V59.1289H149.832V63.1289ZM176.824 61.4023H178.824V59.4023H176.824V61.4023ZM176.824 65.7773V67.7773H178.824V65.7773H176.824ZM166.082 65.7773H164.082V67.7773H166.082V65.7773ZM166.082 61.4023V59.4023H164.082V61.4023H166.082ZM167.957 52.8672H169.957V50.8672H167.957V52.8672ZM167.957 74V76H169.957V74H167.957ZM162.332 74H160.332V76H162.332V74ZM162.332 52.8672V50.8672H160.332V52.8672H162.332ZM180.633 52.8672H182.633V50.8672H180.633V52.8672ZM180.633 74V76H182.633V74H180.633ZM174.988 74H172.988V76H174.988V74ZM174.988 52.8672V50.8672H172.988V52.8672H174.988ZM174.824 61.4023V65.7773H178.824V61.4023H174.824ZM176.824 63.7773H166.082V67.7773H176.824V63.7773ZM168.082 65.7773V61.4023H164.082V65.7773H168.082ZM166.082 63.4023H176.824V59.4023H166.082V63.4023ZM165.957 52.8672V74H169.957V52.8672H165.957ZM167.957 72H162.332V76H167.957V72ZM164.332 74V52.8672H160.332V74H164.332ZM162.332 54.8672H167.957V50.8672H162.332V54.8672ZM178.633 52.8672V74H182.633V52.8672H178.633ZM180.633 72H174.988V76H180.633V72ZM176.988 74V52.8672H172.988V74H176.988ZM174.988 54.8672H180.633V50.8672H174.988V54.8672ZM191.004 52.8672H193.004V50.8672H191.004V52.8672ZM191.004 74V76H193.004V74H191.004ZM185.379 74H183.379V76H185.379V74ZM185.379 52.8672V50.8672H183.379V52.8672H185.379ZM204.734 52.8672L206.382 54.0012L208.539 50.8672H204.734V52.8672ZM195.633 66.0898V68.0898H196.684L197.28 67.2238L195.633 66.0898ZM190.008 66.0898L188.025 66.3508L188.254 68.0898H190.008V66.0898ZM189.324 60.8945V58.8945H187.044L187.341 61.1554L189.324 60.8945ZM193.055 60.8945V62.8945H194.22L194.795 61.8809L193.055 60.8945ZM197.605 52.8672V50.8672H196.44L195.866 51.8808L197.605 52.8672ZM197.859 74L196.131 75.0061L196.709 76H197.859V74ZM192.664 65.0742L191.695 63.3246L189.908 64.3144L190.936 66.0803L192.664 65.0742ZM197.566 62.3594L199.226 61.2429L198.202 59.7212L196.597 60.6097L197.566 62.3594ZM205.398 74V76H209.155L207.058 72.8835L205.398 74ZM189.004 52.8672V74H193.004V52.8672H189.004ZM191.004 72H185.379V76H191.004V72ZM187.379 74V52.8672H183.379V74H187.379ZM185.379 54.8672H191.004V50.8672H185.379V54.8672ZM203.087 51.7332L193.985 64.9559L197.28 67.2238L206.382 54.0012L203.087 51.7332ZM195.633 64.0898H190.008V68.0898H195.633V64.0898ZM191.991 65.8289L191.307 60.6336L187.341 61.1554L188.025 66.3508L191.991 65.8289ZM189.324 62.8945H193.055V58.8945H189.324V62.8945ZM194.795 61.8809L199.345 53.8535L195.866 51.8808L191.315 59.9082L194.795 61.8809ZM197.605 54.8672H204.734V50.8672H197.605V54.8672ZM199.588 72.9939L194.393 64.0681L190.936 66.0803L196.131 75.0061L199.588 72.9939ZM193.633 66.8238L198.535 64.109L196.597 60.6097L191.695 63.3246L193.633 66.8238ZM195.907 63.4758L203.739 75.1165L207.058 72.8835L199.226 61.2429L195.907 63.4758ZM205.398 72H197.859V76H205.398V72ZM218.27 52.8672H220.27V50.8672H218.27V52.8672ZM218.27 74V76H220.27V74H218.27ZM212.625 74H210.625V76H212.625V74ZM212.625 52.8672V50.8672H210.625V52.8672H212.625ZM225.066 52.8672H227.066V50.8672H225.066V52.8672ZM225.066 57.2227V59.2227H227.066V57.2227H225.066ZM205.926 57.2227H203.926V59.2227H205.926V57.2227ZM205.926 52.8672V50.8672H203.926V52.8672H205.926ZM216.27 52.8672V74H220.27V52.8672H216.27ZM218.27 72H212.625V76H218.27V72ZM214.625 74V52.8672H210.625V74H214.625ZM212.625 54.8672H218.27V50.8672H212.625V54.8672ZM223.066 52.8672V57.2227H227.066V52.8672H223.066ZM225.066 55.2227H205.926V59.2227H225.066V55.2227ZM207.926 57.2227V52.8672H203.926V57.2227H207.926ZM205.926 54.8672H225.066V50.8672H205.926V54.8672ZM227.039 58.9609L228.933 59.6047L228.935 59.599L227.039 58.9609ZM232.098 53.2969L232.89 55.1332L232.898 55.1297L232.906 55.1261L232.098 53.2969ZM240.633 53.2969L239.831 55.1292L239.839 55.1327L239.847 55.1362L240.633 53.2969ZM243.777 55.543L242.275 56.8629L242.28 56.8685L242.285 56.8742L243.777 55.543ZM245.73 58.9609L243.835 59.599L243.837 59.6047L245.73 58.9609ZM245.73 67.9258L247.624 68.5696L247.626 68.5639L245.73 67.9258ZM243.777 71.3438L242.276 70.0225L242.275 70.0239L243.777 71.3438ZM232.117 73.5898L231.325 75.4261L231.332 75.4291L232.117 73.5898ZM228.973 71.3438L227.461 72.6536L227.471 72.6644L227.48 72.675L228.973 71.3438ZM227.039 67.9258L225.144 68.5639L225.146 68.5696L227.039 67.9258ZM232.977 68.1602L231.245 69.1607L231.258 69.1836L231.272 69.2062L232.977 68.1602ZM239.754 68.1602L241.476 69.1776L241.481 69.1692L241.486 69.1607L239.754 68.1602ZM240.496 66.1289L238.543 65.6986L238.539 65.7144L238.536 65.7303L240.496 66.1289ZM240.496 60.8164L238.536 61.215L238.54 61.2345L238.545 61.2538L240.496 60.8164ZM239.734 58.7852L237.993 59.7693L238.006 59.7919L238.019 59.8141L239.734 58.7852ZM234.324 57.3789L233.289 55.6674L233.28 55.6729L233.272 55.6784L234.324 57.3789ZM232.977 58.7852L231.252 57.7727L231.245 57.7846L232.977 58.7852ZM232.234 60.8164L234.193 61.2216L234.194 61.215L232.234 60.8164ZM228.375 63.6484V63.2383H224.375V63.6484H228.375ZM228.375 63.2383C228.375 61.8804 228.569 60.675 228.933 59.6047L225.146 58.3171C224.624 59.851 224.375 61.4972 224.375 63.2383H228.375ZM228.935 59.599C229.3 58.5142 229.818 57.6116 230.475 56.8629L227.47 54.2231C226.435 55.4015 225.664 56.7775 225.144 58.3229L228.935 59.599ZM230.475 56.8629C231.116 56.1332 231.911 55.5557 232.89 55.1332L231.305 51.4606C229.81 52.1058 228.522 53.0257 227.47 54.2231L230.475 56.8629ZM232.906 55.1261C233.846 54.7106 234.982 54.4766 236.355 54.4766V50.4766C234.526 50.4766 232.823 50.7894 231.289 51.4677L232.906 55.1261ZM236.355 54.4766C237.728 54.4766 238.874 54.7104 239.831 55.1292L241.434 51.4646C239.892 50.7896 238.186 50.4766 236.355 50.4766V54.4766ZM239.847 55.1362C240.839 55.5598 241.637 56.1372 242.275 56.8629L245.28 54.2231C244.225 53.0217 242.926 52.1016 241.418 51.4576L239.847 55.1362ZM242.285 56.8742C242.951 57.6215 243.472 58.5204 243.835 59.599L247.626 58.3229C247.104 56.7712 246.322 55.3915 245.27 54.2117L242.285 56.8742ZM243.837 59.6047C244.201 60.675 244.395 61.8804 244.395 63.2383H248.395C248.395 61.4972 248.146 59.851 247.624 58.3171L243.837 59.6047ZM244.395 63.2383V63.6484H248.395V63.2383H244.395ZM244.395 63.6484C244.395 64.991 244.201 66.199 243.835 67.2877L247.626 68.5639C248.145 67.0223 248.395 65.3787 248.395 63.6484H244.395ZM243.837 67.282C243.474 68.3491 242.951 69.2549 242.276 70.0225L245.279 72.665C246.322 71.4795 247.101 70.1066 247.624 68.5696L243.837 67.282ZM242.275 70.0239C241.634 70.7536 240.839 71.331 239.86 71.7536L241.445 75.4261C242.94 74.7809 244.228 73.861 245.28 72.6636L242.275 70.0239ZM239.86 71.7536C238.916 72.161 237.774 72.3906 236.395 72.3906V76.3906C238.218 76.3906 239.915 76.0864 241.445 75.4261L239.86 71.7536ZM236.395 72.3906C235.016 72.3906 233.864 72.1612 232.903 71.7506L231.332 75.4291C232.87 76.0862 234.57 76.3906 236.395 76.3906V72.3906ZM232.91 71.7536C231.928 71.3299 231.122 70.7493 230.465 70.0125L227.48 72.675C228.542 73.8653 229.832 74.782 231.325 75.4261L232.91 71.7536ZM230.484 70.0339C229.818 69.2649 229.298 68.3553 228.933 67.282L225.146 68.5696C225.666 70.1004 226.435 71.4695 227.461 72.6536L230.484 70.0339ZM228.935 67.2877C228.568 66.199 228.375 64.991 228.375 63.6484H224.375C224.375 65.3787 224.625 67.0223 225.144 68.5639L228.935 67.2877ZM230 63.2383V63.6484H234V63.2383H230ZM230 63.6484C230 64.6508 230.088 65.6125 230.275 66.5275L234.194 65.7303C234.068 65.1088 234 64.4169 234 63.6484H230ZM230.275 66.5275C230.467 67.4745 230.783 68.3608 231.245 69.1607L234.708 67.1596C234.493 66.7877 234.314 66.3197 234.194 65.7303L230.275 66.5275ZM231.272 69.2062C231.79 70.05 232.482 70.7386 233.339 71.2368L235.349 67.7788C235.086 67.626 234.867 67.4161 234.681 67.1141L231.272 69.2062ZM233.339 71.2368C234.27 71.7786 235.32 71.9961 236.395 71.9961V67.9961C235.854 67.9961 235.537 67.888 235.349 67.7788L233.339 71.2368ZM236.395 71.9961C237.456 71.9961 238.489 71.7732 239.411 71.2368L237.401 67.7788C237.204 67.8935 236.895 67.9961 236.395 67.9961V71.9961ZM239.411 71.2368C240.276 70.7345 240.968 70.0367 241.476 69.1776L238.032 67.1427C237.863 67.4295 237.657 67.6301 237.401 67.7788L239.411 71.2368ZM241.486 69.1607C241.948 68.3608 242.263 67.4745 242.456 66.5275L238.536 65.7303C238.416 66.3197 238.237 66.7877 238.022 67.1596L241.486 69.1607ZM242.449 66.5593C242.653 65.6334 242.75 64.6608 242.75 63.6484H238.75C238.75 64.4069 238.677 65.088 238.543 65.6986L242.449 66.5593ZM242.75 63.6484V63.2383H238.75V63.6484H242.75ZM242.75 63.2383C242.75 62.2477 242.652 61.2925 242.448 60.379L238.545 61.2538C238.678 61.8507 238.75 62.5101 238.75 63.2383H242.75ZM242.456 60.4178C242.261 59.4593 241.934 58.5632 241.449 57.7562L238.019 59.8141C238.238 60.179 238.419 60.637 238.536 61.215L242.456 60.4178ZM241.476 57.801C240.977 56.919 240.291 56.193 239.422 55.6674L237.352 59.0904C237.602 59.2419 237.815 59.4534 237.993 59.7693L241.476 57.801ZM239.422 55.6674C238.489 55.1034 237.436 54.8711 236.355 54.8711V58.8711C236.863 58.8711 237.165 58.9773 237.352 59.0904L239.422 55.6674ZM236.355 54.8711C235.275 54.8711 234.222 55.1034 233.289 55.6674L235.359 59.0904C235.546 58.9773 235.848 58.8711 236.355 58.8711V54.8711ZM233.272 55.6784C232.426 56.2017 231.755 56.9161 231.252 57.7728L234.701 59.7976C234.902 59.4563 235.129 59.2332 235.377 59.0794L233.272 55.6784ZM231.245 57.7846C230.783 58.5845 230.467 59.4708 230.275 60.4178L234.194 61.215C234.314 60.6256 234.493 60.1577 234.708 59.7857L231.245 57.7846ZM230.276 60.4112C230.089 61.3138 230 62.258 230 63.2383H234C234 62.4998 234.067 61.8294 234.193 61.2216L230.276 60.4112ZM264.324 61.4023H266.324V59.4023H264.324V61.4023ZM264.324 65.7773V67.7773H266.324V65.7773H264.324ZM253.582 65.7773H251.582V67.7773H253.582V65.7773ZM253.582 61.4023V59.4023H251.582V61.4023H253.582ZM255.457 52.8672H257.457V50.8672H255.457V52.8672ZM255.457 74V76H257.457V74H255.457ZM249.832 74H247.832V76H249.832V74ZM249.832 52.8672V50.8672H247.832V52.8672H249.832ZM268.133 52.8672H270.133V50.8672H268.133V52.8672ZM268.133 74V76H270.133V74H268.133ZM262.488 74H260.488V76H262.488V74ZM262.488 52.8672V50.8672H260.488V52.8672H262.488ZM262.324 61.4023V65.7773H266.324V61.4023H262.324ZM264.324 63.7773H253.582V67.7773H264.324V63.7773ZM255.582 65.7773V61.4023H251.582V65.7773H255.582ZM253.582 63.4023H264.324V59.4023H253.582V63.4023ZM253.457 52.8672V74H257.457V52.8672H253.457ZM255.457 72H249.832V76H255.457V72ZM251.832 74V52.8672H247.832V74H251.832ZM249.832 54.8672H255.457V50.8672H249.832V54.8672ZM266.133 52.8672V74H270.133V52.8672H266.133ZM268.133 72H262.488V76H268.133V72ZM264.488 74V52.8672H260.488V74H264.488ZM262.488 54.8672H268.133V50.8672H262.488V54.8672ZM293.562 59.5859H295.562V57.5859H293.562V59.5859ZM293.562 64V66H295.562V64H293.562ZM282.527 64H280.527V66H282.527V64ZM282.527 59.5859V57.5859H280.527V59.5859H282.527ZM291.562 59.5859V64H295.562V59.5859H291.562ZM293.562 62H282.527V66H293.562V62ZM284.527 64V59.5859H280.527V64H284.527ZM282.527 61.5859H293.562V57.5859H282.527V61.5859ZM314.656 45.5625H316.656V43.5625H314.656V45.5625ZM314.656 74V76H316.656V74H314.656ZM308.797 74H306.797V76H308.797V74ZM308.797 45.5625V43.5625H306.797V45.5625H308.797ZM320.086 58.1602H322.086V56.1602H320.086V58.1602ZM320.086 62.5547V64.5547H322.086V62.5547H320.086ZM312.332 62.5547H310.332V64.5547H312.332V62.5547ZM312.332 58.1602V56.1602H310.332V58.1602H312.332ZM338.719 70.6797L340.212 72.0104L340.219 72.0024L338.719 70.6797ZM334.891 73.4336L334.101 71.5961L334.095 71.5987L334.891 73.4336ZM325.086 73.4336L324.29 75.2685L324.296 75.271L325.086 73.4336ZM321.238 70.6797L319.746 72.0114L319.754 72.0199L319.761 72.0282L321.238 70.6797ZM318.738 53.2969L320.63 53.9466L320.631 53.9422L318.738 53.2969ZM321.219 48.9023L319.727 47.5706L319.719 47.5796L321.219 48.9023ZM325.047 46.1289L324.257 44.2914L324.251 44.294L325.047 46.1289ZM334.852 46.1289L334.056 47.9638L334.062 47.9664L334.852 46.1289ZM338.68 48.9023L337.18 50.2251L337.188 50.2341L338.68 48.9023ZM341.18 53.2969L339.287 53.9422L339.29 53.9509L339.293 53.9595L341.18 53.2969ZM335.75 55.0938L333.805 55.558L335.75 55.0938ZM332.586 50.4453L331.656 52.2158L331.668 52.222L331.679 52.2281L332.586 50.4453ZM327.312 50.4453L328.231 52.2218L328.243 52.2158L327.312 50.4453ZM325.379 52.2031L323.728 51.0747L323.721 51.0842L323.715 51.0937L325.379 52.2031ZM324.188 64.4492L322.241 64.9085L322.242 64.9135L324.188 64.4492ZM325.398 67.3594L323.739 68.475L323.743 68.4814L323.747 68.4878L325.398 67.3594ZM327.352 69.1367L326.421 70.9072L327.352 69.1367ZM332.605 69.1367L331.675 67.3662L331.669 67.3695L331.663 67.3729L332.605 69.1367ZM334.539 67.3594L332.879 66.2437L332.875 66.25L334.539 67.3594ZM335.75 64.4492L337.695 64.9135L337.697 64.9085L335.75 64.4492ZM312.656 45.5625V74H316.656V45.5625H312.656ZM314.656 72H308.797V76H314.656V72ZM310.797 74V45.5625H306.797V74H310.797ZM308.797 47.5625H314.656V43.5625H308.797V47.5625ZM318.086 58.1602V62.5547H322.086V58.1602H318.086ZM320.086 60.5547H312.332V64.5547H320.086V60.5547ZM314.332 62.5547V58.1602H310.332V62.5547H314.332ZM312.332 60.1602H320.086V56.1602H312.332V60.1602ZM340.078 59.1172V60.4648H344.078V59.1172H340.078ZM340.078 60.4648C340.078 62.4474 339.809 64.1641 339.306 65.6398L343.092 66.9305C343.761 64.9687 344.078 62.8052 344.078 60.4648H340.078ZM339.306 65.6398C338.795 67.1401 338.092 68.3669 337.219 69.357L340.219 72.0024C341.481 70.5706 342.432 68.8677 343.092 66.9305L339.306 65.6398ZM337.226 69.3489C336.354 70.327 335.318 71.0728 334.101 71.5961L335.68 75.271C337.432 74.5184 338.948 73.4282 340.212 72.0104L337.226 69.3489ZM334.095 71.5987C332.903 72.1154 331.544 72.3906 329.988 72.3906V76.3906C332.026 76.3906 333.935 76.0278 335.686 75.2685L334.095 71.5987ZM329.988 72.3906C328.448 72.3906 327.086 72.1162 325.876 71.5961L324.296 75.271C326.055 76.027 327.961 76.3906 329.988 76.3906V72.3906ZM325.882 71.5987C324.672 71.0742 323.621 70.3232 322.715 69.3311L319.761 72.0282C321.043 73.432 322.557 74.5169 324.29 75.2685L325.882 71.5987ZM322.73 69.348C321.848 68.3591 321.141 67.1354 320.631 65.6398L316.845 66.9305C317.507 68.8725 318.467 70.5784 319.746 72.0114L322.73 69.348ZM320.631 65.6398C320.128 64.1641 319.859 62.4474 319.859 60.4648H315.859C315.859 62.8052 316.176 64.9687 316.845 66.9305L320.631 65.6398ZM319.859 60.4648V59.1172H315.859V60.4648H319.859ZM319.859 59.1172C319.859 57.1198 320.129 55.4053 320.63 53.9466L316.847 52.6471C316.176 54.5999 315.859 56.7657 315.859 59.1172H319.859ZM320.631 53.9422C321.143 52.4419 321.846 51.2151 322.719 50.2251L319.719 47.5796C318.456 49.0115 317.506 50.7144 316.845 52.6515L320.631 53.9422ZM322.711 50.2341C323.601 49.2366 324.64 48.4851 325.843 47.9638L324.251 44.294C322.511 45.0487 320.998 46.1462 319.727 47.5706L322.711 50.2341ZM325.837 47.9664C327.047 47.4463 328.409 47.1719 329.949 47.1719V43.1719C327.922 43.1719 326.016 43.5355 324.257 44.2915L325.837 47.9664ZM329.949 47.1719C331.505 47.1719 332.864 47.4471 334.056 47.9638L335.647 44.294C333.896 43.5347 331.987 43.1719 329.949 43.1719V47.1719ZM334.062 47.9664C335.274 48.4876 336.308 49.2363 337.18 50.2251L340.18 47.5796C338.916 46.1465 337.397 45.0463 335.641 44.2915L334.062 47.9664ZM337.188 50.2341C338.07 51.2229 338.777 52.4467 339.287 53.9422L343.073 52.6515C342.411 50.7096 341.451 49.0037 340.172 47.5706L337.188 50.2341ZM339.293 53.9595C339.803 55.4141 340.078 57.124 340.078 59.1172H344.078C344.078 56.7614 343.754 54.5911 343.067 52.6342L339.293 53.9595ZM338.16 60.4648V59.0781H334.16V60.4648H338.16ZM338.16 59.0781C338.16 57.4528 338.014 55.9631 337.695 54.6295L333.805 55.558C334.033 56.5161 334.16 57.6826 334.16 59.0781H338.16ZM337.695 54.6295C337.379 53.3022 336.891 52.1002 336.19 51.0747L332.888 53.3315C333.255 53.8685 333.574 54.5936 333.805 55.558L337.695 54.6295ZM336.19 51.0747C335.486 50.0441 334.589 49.2199 333.492 48.6625L331.679 52.2281C332.12 52.452 332.524 52.7997 332.888 53.3315L336.19 51.0747ZM333.516 48.6748C332.423 48.1004 331.217 47.8398 329.949 47.8398V51.8398C330.661 51.8398 331.212 51.9829 331.656 52.2158L333.516 48.6748ZM329.949 47.8398C328.681 47.8398 327.475 48.1004 326.382 48.6748L328.243 52.2158C328.686 51.9829 329.238 51.8398 329.949 51.8398V47.8398ZM326.394 48.6689C325.312 49.2281 324.427 50.0516 323.728 51.0747L327.03 53.3315C327.399 52.7922 327.802 52.4437 328.231 52.2217L326.394 48.6689ZM323.715 51.0937C323.034 52.1146 322.557 53.3099 322.242 54.6295L326.133 55.558C326.365 54.586 326.682 53.8541 327.043 53.3125L323.715 51.0937ZM322.242 54.6295C321.924 55.9631 321.777 57.4528 321.777 59.0781H325.777C325.777 57.6826 325.904 56.5161 326.133 55.558L322.242 54.6295ZM321.777 59.0781V60.4648H325.777V59.0781H321.777ZM321.777 60.4648C321.777 62.0792 321.924 63.5664 322.241 64.9085L326.134 63.9899C325.904 63.0143 325.777 61.8453 325.777 60.4648H321.777ZM322.242 64.9135C322.559 66.2399 323.045 67.4426 323.739 68.475L327.058 66.2437C326.685 65.6877 326.363 64.9502 326.133 63.985L322.242 64.9135ZM323.747 68.4878C324.448 69.5138 325.338 70.3382 326.421 70.9072L328.282 67.3662C327.828 67.128 327.416 66.7675 327.05 66.231L323.747 68.4878ZM326.421 70.9072C327.514 71.4816 328.72 71.7422 329.988 71.7422V67.7422C329.277 67.7422 328.725 67.5991 328.282 67.3662L326.421 70.9072ZM329.988 71.7422C331.255 71.7422 332.461 71.4818 333.548 70.9006L331.663 67.3729C331.24 67.5989 330.7 67.7422 329.988 67.7422V71.7422ZM333.536 70.9072C334.624 70.3354 335.512 69.5049 336.203 68.4688L332.875 66.25C332.524 66.7764 332.123 67.1307 331.675 67.3662L333.536 70.9072ZM336.199 68.475C336.893 67.4426 337.379 66.2399 337.695 64.9135L333.805 63.985C333.574 64.9502 333.253 65.6877 332.879 66.2437L336.199 68.475ZM337.697 64.9085C338.013 63.5664 338.16 62.0792 338.16 60.4648H334.16C334.16 61.8453 334.034 63.0143 333.803 63.9899L337.697 64.9085ZM365.125 45.5625H367.125V43.5625H365.125V45.5625ZM365.125 50.1523V52.1523H367.125V50.1523H365.125ZM352.312 50.1523V48.1523H350.312V50.1523H352.312ZM352.312 74V76H354.312V74H352.312ZM346.473 74H344.473V76H346.473V74ZM346.473 45.5625V43.5625H344.473V45.5625H346.473ZM363.125 45.5625V50.1523H367.125V45.5625H363.125ZM365.125 48.1523H352.312V52.1523H365.125V48.1523ZM350.312 50.1523V74H354.312V50.1523H350.312ZM352.312 72H346.473V76H352.312V72ZM348.473 74V45.5625H344.473V74H348.473ZM346.473 47.5625H365.125V43.5625H346.473V47.5625Z" fill="#2E7EB3" mask="url(#path-1-outside-1_1_8)"/>
</svg>
