<svg width="88" height="88" viewBox="0 0 88 88" fill="none" xmlns="http://www.w3.org/2000/svg">
<path d="M12.7503 4.375H12.75H4.6875C3.70951 4.375 2.77158 4.7635 2.08004 5.45504C1.3885 6.14658 1 7.08451 1 8.0625C1 9.04049 1.3885 9.97842 2.08004 10.67C2.77158 11.3615 3.70951 11.75 4.6875 11.75H9.87215L11.8263 19.6008L19.8779 62.491C19.878 62.4912 19.878 62.4913 19.878 62.4915C20.0363 63.3363 20.4847 64.0993 21.1458 64.6486C21.5507 64.9851 22.0198 65.2285 22.5201 65.3667C21.8199 65.817 21.1643 66.3437 20.5665 66.9415C18.3629 69.1451 17.125 72.1337 17.125 75.25C17.125 78.3663 18.3629 81.3549 20.5665 83.5585C22.77 85.7621 25.7587 87 28.875 87C31.9913 87 34.9799 85.7621 37.1835 83.5585C39.3871 81.3549 40.625 78.3663 40.625 75.25C40.625 72.1337 39.3871 69.1451 37.1835 66.9415C36.6437 66.4017 36.0568 65.9199 35.4325 65.5H59.9425C59.3182 65.9199 58.7313 66.4017 58.1915 66.9415C55.9879 69.1451 54.75 72.1337 54.75 75.25C54.75 78.3663 55.9879 81.3549 58.1915 83.5585C60.3951 85.7621 63.3837 87 66.5 87C69.6163 87 72.6049 85.7621 74.8085 83.5585C77.0121 81.3549 78.25 78.3663 78.25 75.25C78.25 72.1337 77.0121 69.1451 74.8085 66.9415C74.2107 66.3437 73.5551 65.817 72.8549 65.3667C73.3552 65.2285 73.8243 64.9851 74.2292 64.6486C74.8903 64.0993 75.3388 63.3362 75.497 62.4913C75.497 62.4912 75.497 62.4911 75.497 62.491L83.5595 19.4913L83.5595 19.491C83.6592 18.9588 83.6404 18.4112 83.5045 17.8871L82.5365 18.138L83.5045 17.8871C83.3686 17.363 83.119 16.8752 82.7733 16.4584C82.4277 16.0417 81.9945 15.7061 81.5045 15.4757C81.0146 15.2452 80.4799 15.1255 79.9384 15.125H79.9375H18.3146L16.3272 7.17013C16.1281 6.37203 15.6679 5.6634 15.0198 5.15693C14.3717 4.65046 13.5728 4.37523 12.7503 4.375ZM26.5605 58.125L19.8783 22.5H75.4967L68.8145 58.125H26.5605ZM28.875 70.875C30.0353 70.875 31.1481 71.3359 31.9686 72.1564C32.7891 72.9769 33.25 74.0897 33.25 75.25C33.25 76.4103 32.7891 77.5231 31.9686 78.3436C31.1481 79.1641 30.0353 79.625 28.875 79.625C27.7147 79.625 26.6019 79.1641 25.7814 78.3436C24.9609 77.5231 24.5 76.4103 24.5 75.25C24.5 74.0897 24.9609 72.9769 25.7814 72.1564C26.6019 71.3359 27.7147 70.875 28.875 70.875ZM66.5 70.875C67.6603 70.875 68.7731 71.3359 69.5936 72.1564C70.4141 72.9769 70.875 74.0897 70.875 75.25C70.875 76.4103 70.4141 77.5231 69.5936 78.3436C68.7731 79.1641 67.6603 79.625 66.5 79.625C65.3397 79.625 64.2269 79.1641 63.4064 78.3436C62.5859 77.5231 62.125 76.4103 62.125 75.25C62.125 74.0897 62.5859 72.9769 63.4064 72.1564C64.2269 71.3359 65.3397 70.875 66.5 70.875Z" fill="white" stroke="#2E7EB3" stroke-width="2"/>
</svg>
