<svg width="80" height="64" viewBox="0 0 80 64" fill="none" xmlns="http://www.w3.org/2000/svg">
<g clip-path="url(#clip0_127_93)">
<path d="M68 4H65.955C64.13 1.585 61.2612 0 58 0C52.4775 0 48 4.4775 48 10V12.6225L1.51125 49.1963C1.04213 49.548 0.661334 50.0041 0.399028 50.5285C0.136722 51.0529 0.000106726 51.6312 0 52.2175C0 55.025 2.955 56.8513 5.46625 55.5963L20.6588 48H32.72L38.2713 63.0125C38.555 63.7913 39.415 64.1925 40.1937 63.9088L43.0125 62.8825C43.7913 62.5988 44.1925 61.7388 43.9087 60.96L39.1175 48H44C44.2388 48 44.47 47.9713 44.7075 47.9638L50.2713 63.0113C50.555 63.79 51.415 64.1913 52.1937 63.9075L55.0125 62.8813C55.7913 62.5975 56.1925 61.7375 55.9087 60.9588L50.7537 47.0175C60.7175 44.1 68 34.9075 68 24V14L80 12C80 7.58125 74.6275 4 68 4ZM58 13C56.3438 13 55 11.6563 55 10C55 8.3425 56.3438 7 58 7C59.6562 7 61 8.3425 61 10C61 11.6563 59.6562 13 58 13Z" fill="black"/>
</g>
<defs>
<clipPath id="clip0_127_93">
<rect width="80" height="64" fill="white"/>
</clipPath>
</defs>
</svg>
