<svg width="80" height="43" viewBox="0 0 80 43" fill="none" xmlns="http://www.w3.org/2000/svg">
<path d="M45.4306 0C32.9349 0 22.0224 7.3597 15.9488 13.6565L3.81961 4.7811C2.13489 3.54749 -0.380381 4.86167 0.0501738 6.75097L3.4085 21.5L0.0487849 36.2503C-0.38177 38.1396 2.1335 39.4525 3.81822 38.2203L15.9473 29.3448C22.0209 35.6403 32.9349 43 45.4306 43C64.5223 43 80 25.8 80 21.5C80 17.2 64.5223 0 45.4306 0ZM57.5737 24.725C55.7334 24.725 54.2404 23.2804 54.2404 21.5C54.2404 19.7182 55.7334 18.275 57.5737 18.275C59.4153 18.275 60.907 19.7182 60.907 21.5C60.907 23.2804 59.4139 24.725 57.5737 24.725Z" fill="black"/>
</svg>
