<svg width="78" height="69" viewBox="0 0 78 69" fill="none" xmlns="http://www.w3.org/2000/svg">
<g clip-path="url(#clip0_127_87)">
<path d="M44.2948 12.9375C32.1114 12.9375 21.4717 20.3186 15.5499 26.6337L3.72396 17.7325C2.08135 16.4953 -0.371042 17.8133 0.0487498 19.7081L3.32312 34.5L0.0473956 49.2932C-0.372396 51.188 2.08 52.5047 3.7226 51.2689L15.5485 42.3676C21.4703 48.6814 32.1114 56.0625 44.2948 56.0625C62.9092 56.0625 78 38.8125 78 34.5C78 30.1875 62.9092 12.9375 44.2948 12.9375ZM56.1343 37.7344C54.34 37.7344 52.8843 36.2856 52.8843 34.5C52.8843 32.713 54.34 31.2656 56.1343 31.2656C57.9299 31.2656 59.3843 32.713 59.3843 34.5C59.3843 36.2856 57.9285 37.7344 56.1343 37.7344Z" fill="black"/>
</g>
<defs>
<clipPath id="clip0_127_87">
<rect width="78" height="69" fill="white"/>
</clipPath>
</defs>
</svg>
