<svg width="70" height="63" viewBox="0 0 70 63" fill="none" xmlns="http://www.w3.org/2000/svg">
<g clip-path="url(#clip0_127_91)">
<path d="M68.4566 49.4156C68.7736 50.4545 68.1954 51.5566 67.166 51.7658L65.3005 52.3452C64.27 52.6652 63.1774 52.082 62.8603 51.0422L59.9375 41.5898L50.2408 37.6769L56.7389 45.3243C57.3563 46.0508 57.5862 47.0334 57.3563 47.9624L53.9255 61.5099C53.6641 62.5644 52.6045 63.2055 51.5594 62.9422L49.666 62.4656C48.6197 62.2022 47.984 61.133 48.2453 60.0785L51.3078 48.0174L46.6278 42.5086C46.6464 42.7799 46.7083 43.0386 46.7083 43.3145C46.7083 49.8384 41.4644 55.127 34.9967 55.127C28.529 55.127 23.2847 49.834 23.2847 43.3125C23.2847 43.0366 23.3469 42.7785 23.3653 42.5074L18.6852 48.015L21.7477 60.076C22.0091 61.131 21.3729 62.1998 20.3271 62.4631L18.4337 62.9397C17.3882 63.2031 16.3288 62.5617 16.0675 61.5074L12.6368 47.96C12.4066 47.0318 12.6368 46.0491 13.2542 45.3218L19.7522 37.6745L10.0555 41.5874L7.13766 51.153C6.82072 52.1924 5.72794 52.776 4.69738 52.4561L2.83193 51.8767C1.80162 51.5568 1.22412 50.4555 1.54009 49.5265L4.86995 38.6135C5.13039 37.7596 5.7599 37.0704 6.58228 36.7382L19.3108 31.5L6.58681 26.3652C5.76407 26.0367 5.13577 25.2369 4.87449 24.4986L1.54584 13.5844C1.2289 12.5455 1.807 11.4433 2.83647 11.2342L4.70192 10.6547C5.73247 10.3348 6.82501 10.9179 7.14219 11.9578L10.0601 21.5235L19.7568 25.4364L13.2587 17.6695C12.6389 16.9435 12.408 15.9592 12.6389 15.0363L16.0696 1.48885C16.331 0.434342 17.3906 -0.206732 18.4358 0.056588L20.3292 0.533149C21.3767 0.799053 22.0087 1.86784 21.6441 2.92358L18.691 14.9871L25.2413 22.6898L25.2601 19.6826C25.0469 15.184 27.8177 11.292 31.7674 9.89665C32.3921 9.67602 33.0434 10.1692 33.0434 10.8368V13.7812H36.9469V10.8392C36.9469 10.1694 37.6024 9.67725 38.229 9.89898C42.0365 11.2452 44.7587 14.8887 44.7587 19.183C44.7587 19.3544 44.737 19.5139 44.7284 19.6831L44.7587 22.6898L51.3102 14.9797L48.2478 2.91866C47.9863 1.86365 48.6225 0.794869 49.6684 0.531549L51.5618 0.0549884C52.6073 -0.208455 53.6667 0.432988 53.928 1.48725L57.3587 15.0347C57.5889 15.9629 57.3587 16.9456 56.7413 17.6728L50.2432 25.3202L59.9399 21.4073L62.8578 11.8417C63.1748 10.8023 64.2675 10.2187 65.2981 10.5386L67.1636 11.118C68.1939 11.4379 68.7714 12.5392 68.4554 13.4682L65.1255 24.3812C64.8651 25.2351 64.2356 25.9242 63.4132 26.2565L50.6892 31.5L63.4132 36.6347C64.234 36.9659 64.8618 37.6539 65.1231 38.5063L68.4566 49.4156Z" fill="black"/>
</g>
<defs>
<clipPath id="clip0_127_91">
<rect width="70" height="63" fill="white"/>
</clipPath>
</defs>
</svg>
