<svg width="80" height="75" viewBox="0 0 80 75" fill="none" xmlns="http://www.w3.org/2000/svg">
<path d="M79.8965 58.8279C80.2745 60.0646 79.585 61.3765 78.3575 61.6256L76.133 62.3153C74.9042 62.6962 73.6014 62.0019 73.2233 60.7642L69.738 49.5123L58.1754 44.8545L65.9239 53.9578C66.6601 54.8226 66.9342 55.9922 66.6601 57.0981L62.5691 73.2247C62.2574 74.4799 60.9939 75.2431 59.7477 74.9296L57.4899 74.3623C56.2423 74.0488 55.4843 72.776 55.7959 71.5208L59.4477 57.1636L53.8671 50.606C53.8893 50.929 53.9631 51.2369 53.9631 51.5654C53.9631 59.3312 47.7101 65.6266 39.9978 65.6266C32.2855 65.6266 26.032 59.326 26.032 51.563C26.032 51.2345 26.1062 50.9273 26.1281 50.6046L20.5474 57.1607L24.1993 71.5178C24.511 72.7736 23.7523 74.0459 22.5053 74.3593L20.2475 74.9267C19.0008 75.2402 17.7376 74.4767 17.426 73.2217L13.3351 57.0952C13.0606 55.9903 13.3351 54.8205 14.0713 53.9548L21.8198 44.8516L10.2571 49.5095L6.77777 60.8961C6.39984 62.1334 5.09677 62.8281 3.8679 62.4473L1.64348 61.7576C0.414903 61.3768 -0.273727 60.0658 0.103046 58.96L4.07368 45.9694C4.38424 44.9529 5.13488 44.1325 6.11552 43.7371L21.2934 37.5017L6.12092 31.3894C5.13986 30.9983 4.39065 30.0463 4.07909 29.1674L0.109903 16.1754C-0.268027 14.9388 0.421318 13.6267 1.64889 13.3778L3.87331 12.688C5.10218 12.3072 6.40496 13.0013 6.78317 14.2392L10.2626 25.6259L21.8252 30.2837L14.0767 21.0382C13.3376 20.174 13.0623 19.0023 13.3376 17.9037L17.4285 1.77723C17.7402 0.52197 19.0037 -0.241148 20.25 0.0723014L22.5078 0.639587C23.7569 0.956112 24.5105 2.22837 24.0757 3.48509L20.5544 17.8452L28.3651 27.0143L28.3876 23.4346C28.1333 18.0796 31.4373 13.4466 36.1471 11.7856C36.892 11.523 37.6686 12.1101 37.6686 12.9048V16.4097H42.3233V12.9076C42.3233 12.1103 43.1049 11.5245 43.8521 11.7884C48.3923 13.3909 51.6383 17.728 51.6383 22.8399C51.6383 23.0439 51.6124 23.2338 51.6022 23.4352L51.6383 27.0143L59.4505 17.8364L55.7988 3.47923C55.487 2.22338 56.2456 0.951131 57.4928 0.637682L59.7506 0.0703973C60.9972 -0.243199 62.2605 0.520358 62.5721 1.77532L66.663 17.9018C66.9375 19.0067 66.663 20.1765 65.9268 21.0422L58.1782 30.1454L69.7409 25.4876L73.2203 14.101C73.5983 12.8637 74.9013 12.169 76.1302 12.5498L78.3546 13.2395C79.5832 13.6203 80.2718 14.9313 79.895 16.0371L75.9244 29.0277C75.6139 30.0441 74.8632 30.8644 73.8826 31.26L58.71 37.5017L73.8826 43.6139C74.8613 44.0082 75.6099 44.8271 75.9215 45.8418L79.8965 58.8279Z" fill="black"/>
</svg>
