<svg width="102" height="85" viewBox="0 0 102 85" fill="none" xmlns="http://www.w3.org/2000/svg">
<path d="M46.4257 17.0093C38.8981 17.0093 33.6826 19.3441 30.0274 22.8655C26.4871 26.2762 24.5416 30.6783 23.105 34.6336L21.7898 38.2548H12.7475C11.3392 38.2548 10.1975 39.2062 10.1975 40.3798C10.1975 44.9535 12.7345 49.3127 16.8167 51.5572L14.5646 56.1157C13.1594 58.9598 14.7874 62.2145 18.2003 63.3853C19.0073 63.662 19.8716 63.8044 20.7443 63.8044H28.2049C30.7938 63.8044 33.1498 62.5587 34.252 60.6067L36.6509 56.358C43.3512 57.1293 50.1365 57.1281 56.837 56.355L59.2375 60.6067C60.3396 62.5587 62.6953 63.8044 65.2846 63.8044H72.6704C73.5446 63.8044 74.41 63.6616 75.2179 63.3841C78.6303 62.2119 80.2562 58.9564 78.8491 56.1132L76.3128 50.9872H84.9986C88.4386 50.9872 91.8 48.7721 91.8 45.648V42.4957C91.8 37.6647 86.7617 34.0121 80.9809 34.0121H70.4014C68.9413 30.1599 66.7988 26.0396 63.2181 22.8125C59.3559 19.3313 53.9488 17.0093 46.4257 17.0093ZM74.8272 46.7372L71.8901 38.2621H80.9809C84.3336 38.2621 86.7 40.323 86.7 42.4957V45.648C86.7 46.0258 86.1263 46.7372 84.9986 46.7372H74.8272ZM62.0441 55.5951C65.3738 55.0065 68.6715 54.224 71.9151 53.2482L74.1341 57.7328C74.4671 58.4065 74.0821 59.1774 73.2743 59.4549C73.0825 59.5208 72.8775 59.5544 72.6704 59.5544H65.2846C64.6711 59.5544 64.1131 59.2594 63.852 58.797L62.0441 55.5951ZM21.5041 53.2329C24.7696 54.2185 28.0898 55.0073 31.4428 55.5993L29.6373 58.797C29.3763 59.2594 28.8183 59.5544 28.2049 59.5544H20.7443C20.5376 59.5544 20.3328 59.5208 20.1416 59.4554C19.3332 59.1778 18.9478 58.4069 19.2806 57.7337L21.5041 53.2329ZM20.2462 42.5047L18.524 47.2464C17.1133 46.1405 16.0022 44.5153 15.536 42.5047H20.2462Z" fill="black"/>
</svg>
