<svg width="80" height="56" viewBox="0 0 80 56" fill="none" xmlns="http://www.w3.org/2000/svg">
<path d="M35.5154 0.0109558C28.1354 0.0109558 23.0222 2.75778 19.4386 6.9006C15.9678 10.9132 14.0604 16.0921 12.652 20.7454L11.3626 25.0057H2.49756C1.11687 25.0057 -0.00244141 26.125 -0.00244141 27.5057C-0.00244141 32.8865 2.48481 38.015 6.48697 40.6555L4.27903 46.0185C2.90138 49.3645 4.49746 53.1935 7.84344 54.571C8.63462 54.8965 9.48197 55.064 10.3376 55.064H17.6519C20.19 55.064 22.4998 53.5985 23.5804 51.302L25.9323 46.3035C32.5012 47.211 39.1534 47.2095 45.7226 46.3L48.076 51.302C49.1565 53.5985 51.466 55.064 54.0045 55.064H61.2455C62.1026 55.064 62.951 54.896 63.743 54.5695C67.0885 53.1905 68.6826 49.3605 67.303 46.0155L64.8165 39.985H73.332C76.7045 39.985 80 37.379 80 33.7035V29.995C80 24.3114 75.0605 20.0142 69.393 20.0142H59.021C57.5895 15.4822 55.489 10.6348 51.9785 6.83825C48.1921 2.74272 42.891 0.0109558 35.5154 0.0109558ZM63.36 34.985L60.4805 25.0142H69.393C72.68 25.0142 75 27.4388 75 29.995V33.7035C75 34.148 74.4375 34.985 73.332 34.985H63.36ZM50.8276 45.406C54.092 44.7135 57.325 43.793 60.505 42.645L62.6805 47.921C63.007 48.7135 62.6295 49.6205 61.8376 49.947C61.6495 50.0245 61.4485 50.064 61.2455 50.064H54.0045C53.403 50.064 52.856 49.717 52.6 49.173L50.8276 45.406ZM11.0825 42.627C14.2839 43.7865 17.539 44.7145 20.8263 45.411L19.0562 49.173C18.8003 49.717 18.2532 50.064 17.6519 50.064H10.3376C10.1349 50.064 9.93413 50.0245 9.74668 49.9475C8.95413 49.621 8.57628 48.714 8.90256 47.922L11.0825 42.627ZM9.84922 30.0055L8.16079 35.584C6.77775 34.283 5.68844 32.371 5.23138 30.0055H9.84922Z" fill="black"/>
</svg>
